<svg width="48" height="48" viewBox="0 0 48 48" fill="none" xmlns="http://www.w3.org/2000/svg">
<circle cx="24" cy="24" r="24" fill="#7294C7"/>
<path d="M35.7675 30.1386C35.7675 30.039 35.6678 30.039 35.6678 29.9393C35.2693 29.1423 34.3727 28.1461 33.1771 27.0502C32.5794 26.552 32.2805 26.1535 32.0812 25.9542C31.7824 25.5557 31.7824 25.2569 31.882 24.8584C31.9816 24.5595 32.3801 24.0613 33.0775 23.1647C33.476 22.6665 33.6753 22.3677 33.9742 22.0688C35.4686 20.0762 36.166 18.7811 35.9667 18.1833L35.8671 18.0837C35.7675 17.9841 35.6678 17.8844 35.4686 17.8844C35.2693 17.7848 34.9704 17.7848 34.6716 17.8844H30.8857C30.7861 17.8844 30.7861 17.8844 30.5868 17.8844C30.4872 17.8844 30.3876 17.8844 30.3876 17.8844H30.288H30.1883L30.0887 17.984C29.9891 18.0837 29.9891 18.0837 29.9891 18.1833C29.5905 19.2792 29.0924 20.1758 28.5943 21.1721C28.2954 21.6703 27.9965 22.1684 27.6976 22.5669C27.3987 22.9654 27.1995 23.2643 27.0002 23.4636C26.801 23.6628 26.6017 23.7624 26.5021 23.9617C26.4025 24.0613 26.2032 24.161 26.2032 24.0613C26.1036 24.0613 26.004 24.0613 26.004 23.9617C25.9043 23.8621 25.8047 23.7624 25.7051 23.6628C25.6055 23.5632 25.6054 23.3639 25.5058 23.1647C25.5058 22.9654 25.5058 22.7662 25.5058 22.6665C25.5058 22.5669 25.5058 22.268 25.5058 22.0688C25.5058 21.7699 25.5058 21.5706 25.5058 21.471C25.5058 21.1721 25.5058 20.7736 25.5058 20.3751C25.5058 19.9766 25.5058 19.6777 25.5058 19.4785C25.5058 19.2792 25.5058 18.9803 25.5058 18.7811C25.5058 18.4822 25.5058 18.2829 25.5058 18.1833C25.5058 18.0837 25.4062 17.8844 25.4062 17.7848C25.3066 17.6852 25.2069 17.5855 25.1073 17.4859C25.0077 17.3863 24.8084 17.3863 24.7088 17.2867C24.2107 17.187 23.6129 17.0874 22.9155 17.0874C21.3215 17.0874 20.2256 17.187 19.8271 17.3863C19.6278 17.4859 19.4286 17.5855 19.3289 17.7848C19.1297 17.984 19.1297 18.0837 19.2293 18.0837C19.7274 18.1833 20.1259 18.3826 20.3252 18.6814L20.4248 18.8807C20.5245 18.9803 20.5244 19.1796 20.6241 19.4785C20.7237 19.7773 20.7237 20.0762 20.7237 20.4747C20.7237 21.0725 20.7237 21.6703 20.7237 22.0688C20.7237 22.5669 20.6241 22.8658 20.6241 23.1647C20.6241 23.4636 20.5245 23.6628 20.4248 23.7624C20.3252 23.9617 20.3252 24.0613 20.2256 24.0613C20.2256 24.0613 20.2256 24.1609 20.1259 24.1609C20.0263 24.1609 19.9267 24.2606 19.7274 24.2606C19.6278 24.2606 19.4286 24.161 19.3289 24.0613C19.1297 23.9617 18.9304 23.7624 18.8308 23.5632C18.6315 23.3639 18.4323 23.065 18.233 22.6665C18.0338 22.268 17.7349 21.8695 17.5356 21.2718L17.3364 20.8733C17.2367 20.674 17.0375 20.2755 16.8382 19.7773C16.639 19.2792 16.4397 18.8807 16.2405 18.3826C16.1408 18.1833 16.0412 18.0837 15.9416 17.984H15.842C15.842 17.984 15.7423 17.8844 15.6427 17.8844C15.5431 17.8844 15.4435 17.7848 15.3438 17.7848H11.7572C11.3587 17.7848 11.1595 17.8844 11.0598 17.984L10.9602 18.0837C10.9602 18.0837 10.9602 18.1833 10.9602 18.2829C10.9602 18.3826 10.9602 18.4822 11.0598 18.6814C11.558 19.877 12.1557 21.0725 12.7535 22.268C13.3513 23.3639 13.949 24.3602 14.3475 25.0576C14.8457 25.755 15.2442 26.4524 15.7423 27.0502C16.2405 27.6479 16.5393 28.0464 16.639 28.2457C16.8382 28.4449 16.9378 28.5446 17.0375 28.6442L17.3364 28.9431C17.5356 29.1423 17.8345 29.4412 18.233 29.7401C18.6315 30.039 19.1297 30.3379 19.6278 30.6367C20.1259 30.9356 20.7237 31.1349 21.3215 31.3341C22.0189 31.5334 22.6166 31.633 23.2144 31.5334H24.7088C25.0077 31.5334 25.207 31.4338 25.4062 31.2345L25.5058 31.1349C25.5058 31.0352 25.6054 31.0352 25.6054 30.9356C25.6054 30.836 25.6054 30.7364 25.6054 30.5371C25.6054 30.1386 25.6055 29.8397 25.7051 29.5408C25.8047 29.242 25.8047 29.0427 25.9043 28.8435C26.004 28.6442 26.1036 28.5446 26.2032 28.4449C26.3028 28.3453 26.4025 28.2457 26.4025 28.2457H26.5021C26.7013 28.1461 27.0002 28.2457 27.1995 28.4449C27.4984 28.6442 27.7972 28.9431 27.9965 29.242C28.1958 29.5408 28.4947 29.8397 28.8932 30.2382C29.2917 30.6367 29.5906 30.9356 29.7898 31.0353L30.0887 31.2345C30.2879 31.3341 30.4872 31.4338 30.7861 31.5334C31.085 31.633 31.2842 31.633 31.4835 31.633L34.8708 31.5334C35.1697 31.5334 35.4686 31.4338 35.6678 31.3341C35.8671 31.2345 35.9667 31.1349 35.9667 30.9356C35.9667 30.836 35.9667 30.6367 35.9667 30.5371C35.7674 30.3379 35.7675 30.2382 35.7675 30.1386Z" fill="white"/>
</svg>
