<svg width="48" height="48" viewBox="0 0 48 48" fill="none" xmlns="http://www.w3.org/2000/svg">
<circle cx="24" cy="24" r="24" fill="#E45E5E"/>
<path d="M34.4557 22.6956C34.4557 22.2301 34.3781 21.6871 34.3781 21.0665C34.3006 20.4459 34.223 19.8253 34.1454 19.2822C33.9903 18.6616 33.7575 18.1962 33.2921 17.8083C32.9042 17.4204 32.3612 17.1877 31.8181 17.1101C30.0339 16.8774 27.3963 16.7998 23.8278 16.7998C20.2594 16.7998 17.5442 16.8774 15.8375 17.1101C15.2945 17.1877 14.7515 17.4204 14.3636 17.8083C13.9757 18.1962 13.6654 18.6616 13.5102 19.2822C13.3551 19.8253 13.2775 20.3683 13.2775 21.0665C13.2 21.6871 13.2 22.2301 13.2 22.6956C13.2 23.161 13.2 23.704 13.2 24.4798C13.2 25.2556 13.2 25.8762 13.2 26.264C13.2 26.7295 13.2775 27.2725 13.2775 27.8931C13.3551 28.5137 13.4327 29.1343 13.5102 29.6774C13.6654 30.298 13.8981 30.7634 14.3636 31.1513C14.7515 31.5392 15.2945 31.7719 15.8375 31.8495C17.6218 32.0822 20.2594 32.1598 23.8278 32.1598C27.3963 32.1598 30.1115 32.0822 31.8181 31.8495C32.3612 31.7719 32.9042 31.5392 33.2921 31.1513C33.6799 30.7634 33.9903 30.298 34.1454 29.6774C34.3006 29.1343 34.3781 28.5913 34.3781 27.8931C34.4557 27.2725 34.4557 26.7295 34.4557 26.264C34.4557 25.7986 34.4557 25.2556 34.4557 24.4798C34.4557 23.704 34.4557 23.0834 34.4557 22.6956ZM27.9393 25.1004L21.8109 28.9016C21.7333 28.9792 21.5781 29.0568 21.423 29.0568C21.2678 29.0568 21.1903 29.0568 21.0351 28.9792C20.8024 28.824 20.6472 28.5913 20.6472 28.281V20.601C20.6472 20.2907 20.8024 20.058 21.0351 19.9028C21.2678 19.7477 21.5781 19.7477 21.8109 19.9028L27.9393 23.704C28.1721 23.8592 28.3272 24.0919 28.3272 24.3247C28.3272 24.5574 28.1721 24.9453 27.9393 25.1004Z" fill="white"/>
</svg>
